<?xml version="1.0" encoding="utf-8"?>
<svg xmlns="http://www.w3.org/2000/svg" xmlns:xlink="http://www.w3.org/1999/xlink" width="500" height="500" viewBox="0 0 2000 2000">
<defs>
  <clipPath id="clip000">
    <rect x="0" y="0" width="2000" height="2000"/>
  </clipPath>
</defs>
<path clip-path="url(#clip000)" d="
M0 2000 L2000 2000 L2000 0 L0 0  Z
  " fill="#ffffff" fill-rule="evenodd" fill-opacity="1"/>
<defs>
  <clipPath id="clip001">
    <rect x="400" y="200" width="1401" height="1401"/>
  </clipPath>
</defs>
<path clip-path="url(#clip000)" d="
M47.2441 1952.76 L1952.76 1952.76 L1952.76 47.2441 L47.2441 47.2441  Z
  " fill="#ffffff" fill-rule="evenodd" fill-opacity="1"/>
<defs>
  <clipPath id="clip002">
    <rect x="47" y="47" width="1907" height="1907"/>
  </clipPath>
</defs>
<polyline clip-path="url(#clip000)" style="stroke:#000000; stroke-linecap:butt; stroke-linejoin:round; stroke-width:4; stroke-opacity:1; fill:none" points="
  47.2441,1952.76 1952.76,1952.76 
  "/>
<polyline clip-path="url(#clip000)" style="stroke:#000000; stroke-linecap:butt; stroke-linejoin:round; stroke-width:4; stroke-opacity:1; fill:none" points="
  47.2441,1952.76 47.2441,47.2441 
  "/>
<path clip-path="url(#clip002)" d="M558.909 1358.79 L385.709 1258.79 L385.709 1058.79 L558.909 958.793 L732.109 1058.79 L732.109 1258.79 Z" fill="#ffffff" fill-rule="evenodd" fill-opacity="1" stroke="#000000" stroke-opacity="1" stroke-width="4"/>
<path clip-path="url(#clip002)" d="M911.782 1358.79 L738.582 1258.79 L738.582 1058.79 L911.782 958.793 L1084.98 1058.79 L1084.98 1258.79 Z" fill="#ffffff" fill-rule="evenodd" fill-opacity="1" stroke="#000000" stroke-opacity="1" stroke-width="4"/>
<path clip-path="url(#clip002)" d="M1264.65 1358.79 L1091.45 1258.79 L1091.45 1058.79 L1264.65 958.793 L1437.85 1058.79 L1437.85 1258.79 Z" fill="#ffffff" fill-rule="evenodd" fill-opacity="1" stroke="#000000" stroke-opacity="1" stroke-width="4"/>
<path clip-path="url(#clip002)" d="M1617.53 1358.79 L1444.33 1258.79 L1444.33 1058.79 L1617.53 958.793 L1790.73 1058.79 L1790.73 1258.79 Z" fill="#ffffff" fill-rule="evenodd" fill-opacity="1" stroke="#000000" stroke-opacity="1" stroke-width="4"/>
<path clip-path="url(#clip002)" d="M382.473 1053.2 L209.273 953.196 L209.273 753.196 L382.473 653.196 L555.673 753.196 L555.673 953.196 Z" fill="#ffffff" fill-rule="evenodd" fill-opacity="1" stroke="#000000" stroke-opacity="1" stroke-width="4"/>
<path clip-path="url(#clip002)" d="M1793.96 1053.2 L1620.76 953.196 L1620.76 753.196 L1793.96 653.196 L1967.16 753.196 L1967.16 953.196 Z" fill="#ffffff" fill-rule="evenodd" fill-opacity="1" stroke="#000000" stroke-opacity="1" stroke-width="4"/>
<path clip-path="url(#clip002)" d="M558.909 747.599 L385.709 647.599 L385.709 447.599 L558.909 347.599 L732.109 447.599 L732.109 647.599 Z" fill="#ffffff" fill-rule="evenodd" fill-opacity="1" stroke="#000000" stroke-opacity="1" stroke-width="4"/>
<path clip-path="url(#clip002)" d="M911.782 747.599 L738.582 647.599 L738.582 447.599 L911.782 347.599 L1084.98 447.599 L1084.98 647.599 Z" fill="#ffffff" fill-rule="evenodd" fill-opacity="1" stroke="#000000" stroke-opacity="1" stroke-width="4"/>
<path clip-path="url(#clip002)" d="M1264.65 747.599 L1091.45 647.599 L1091.45 447.599 L1264.65 347.599 L1437.85 447.599 L1437.85 647.599 Z" fill="#ffffff" fill-rule="evenodd" fill-opacity="1" stroke="#000000" stroke-opacity="1" stroke-width="4"/>
<path clip-path="url(#clip002)" d="M1617.53 747.599 L1444.33 647.599 L1444.33 447.599 L1617.53 347.599 L1790.73 447.599 L1790.73 647.599 Z" fill="#ffffff" fill-rule="evenodd" fill-opacity="1" stroke="#000000" stroke-opacity="1" stroke-width="4"/>
<path clip-path="url(#clip002)" d="M1264.65 747.599 L1091.45 647.599 L1091.45 447.599 L1264.65 347.599 L1437.85 447.599 L1437.85 647.599 Z" fill="#2066ac" fill-rule="evenodd" fill-opacity="1" stroke="#000000" stroke-opacity="1" stroke-width="4"/>
<polyline clip-path="url(#clip002)" style="stroke:#000000; stroke-linecap:butt; stroke-linejoin:round; stroke-width:8; stroke-opacity:1; fill:none" points="
  1264.65,547.599 1264.65,547.599 
  "/>
<polyline clip-path="url(#clip002)" style="stroke:#000000; stroke-linecap:butt; stroke-linejoin:round; stroke-width:8; stroke-opacity:1; fill:none" points="
  -1.#IND,-1.#IND -1.#IND,-1.#IND -1.#IND,-1.#IND 
  "/>
<polyline clip-path="url(#clip002)" style="stroke:#000000; stroke-linecap:butt; stroke-linejoin:round; stroke-width:8; stroke-opacity:1; fill:none" points="
  -1.#IND,-1.#IND -1.#IND,-1.#IND 
  "/>
<path clip-path="url(#clip002)" d="M558.909 1358.79 L385.709 1258.79 L385.709 1058.79 L558.909 958.793 L732.109 1058.79 L732.109 1258.79 Z" fill="#da6b55" fill-rule="evenodd" fill-opacity="1" stroke="#000000" stroke-opacity="1" stroke-width="4"/>
<polyline clip-path="url(#clip002)" style="stroke:#000000; stroke-linecap:butt; stroke-linejoin:round; stroke-width:8; stroke-opacity:1; fill:none" points="
  558.909,1158.79 488.335,1036.55 
  "/>
<polyline clip-path="url(#clip002)" style="stroke:#000000; stroke-linecap:butt; stroke-linejoin:round; stroke-width:8; stroke-opacity:1; fill:none" points="
  490.344,1070.03 488.335,1036.55 516.325,1055.03 
  "/>
<polyline clip-path="url(#clip002)" style="stroke:#000000; stroke-linecap:butt; stroke-linejoin:round; stroke-width:8; stroke-opacity:1; fill:none" points="
  488.335,1036.55 558.909,1158.79 
  "/>
<path clip-path="url(#clip002)" d="M911.782 1358.79 L738.582 1258.79 L738.582 1058.79 L911.782 958.793 L1084.98 1058.79 L1084.98 1258.79 Z" fill="#b1172b" fill-rule="evenodd" fill-opacity="1" stroke="#000000" stroke-opacity="1" stroke-width="4"/>
<polyline clip-path="url(#clip002)" style="stroke:#000000; stroke-linecap:butt; stroke-linejoin:round; stroke-width:8; stroke-opacity:1; fill:none" points="
  911.782,1158.79 1052.93,1158.79 
  "/>
<polyline clip-path="url(#clip002)" style="stroke:#000000; stroke-linecap:butt; stroke-linejoin:round; stroke-width:8; stroke-opacity:1; fill:none" points="
  1022.93,1143.79 1052.93,1158.79 1022.93,1173.79 
  "/>
<polyline clip-path="url(#clip002)" style="stroke:#000000; stroke-linecap:butt; stroke-linejoin:round; stroke-width:8; stroke-opacity:1; fill:none" points="
  1052.93,1158.79 911.782,1158.79 
  "/>
<path clip-path="url(#clip002)" d="M1264.65 1358.79 L1091.45 1258.79 L1091.45 1058.79 L1264.65 958.793 L1437.85 1058.79 L1437.85 1258.79 Z" fill="#da6b55" fill-rule="evenodd" fill-opacity="1" stroke="#000000" stroke-opacity="1" stroke-width="4"/>
<polyline clip-path="url(#clip002)" style="stroke:#000000; stroke-linecap:butt; stroke-linejoin:round; stroke-width:8; stroke-opacity:1; fill:none" points="
  1264.65,1158.79 1405.8,1158.79 
  "/>
<polyline clip-path="url(#clip002)" style="stroke:#000000; stroke-linecap:butt; stroke-linejoin:round; stroke-width:8; stroke-opacity:1; fill:none" points="
  1375.8,1143.79 1405.8,1158.79 1375.8,1173.79 
  "/>
<polyline clip-path="url(#clip002)" style="stroke:#000000; stroke-linecap:butt; stroke-linejoin:round; stroke-width:8; stroke-opacity:1; fill:none" points="
  1405.8,1158.79 1264.65,1158.79 
  "/>
<path clip-path="url(#clip002)" d="M1617.53 1358.79 L1444.33 1258.79 L1444.33 1058.79 L1617.53 958.793 L1790.73 1058.79 L1790.73 1258.79 Z" fill="#f8c0a5" fill-rule="evenodd" fill-opacity="1" stroke="#000000" stroke-opacity="1" stroke-width="4"/>
<polyline clip-path="url(#clip002)" style="stroke:#000000; stroke-linecap:butt; stroke-linejoin:round; stroke-width:8; stroke-opacity:1; fill:none" points="
  1617.53,1158.79 1688.1,1036.55 
  "/>
<polyline clip-path="url(#clip002)" style="stroke:#000000; stroke-linecap:butt; stroke-linejoin:round; stroke-width:8; stroke-opacity:1; fill:none" points="
  1660.11,1055.03 1688.1,1036.55 1686.09,1070.03 
  "/>
<polyline clip-path="url(#clip002)" style="stroke:#000000; stroke-linecap:butt; stroke-linejoin:round; stroke-width:8; stroke-opacity:1; fill:none" points="
  1688.1,1036.55 1617.53,1158.79 
  "/>
<path clip-path="url(#clip002)" d="M382.473 1053.2 L209.273 953.196 L209.273 753.196 L382.473 653.196 L555.673 753.196 L555.673 953.196 Z" fill="#f8c0a5" fill-rule="evenodd" fill-opacity="1" stroke="#000000" stroke-opacity="1" stroke-width="4"/>
<polyline clip-path="url(#clip002)" style="stroke:#000000; stroke-linecap:butt; stroke-linejoin:round; stroke-width:8; stroke-opacity:1; fill:none" points="
  382.473,853.196 453.048,730.957 
  "/>
<polyline clip-path="url(#clip002)" style="stroke:#000000; stroke-linecap:butt; stroke-linejoin:round; stroke-width:8; stroke-opacity:1; fill:none" points="
  425.057,749.438 453.048,730.957 451.038,764.438 
  "/>
<polyline clip-path="url(#clip002)" style="stroke:#000000; stroke-linecap:butt; stroke-linejoin:round; stroke-width:8; stroke-opacity:1; fill:none" points="
  453.048,730.957 382.473,853.196 
  "/>
<path clip-path="url(#clip002)" d="M1793.96 1053.2 L1620.76 953.196 L1620.76 753.196 L1793.96 653.196 L1967.16 753.196 L1967.16 953.196 Z" fill="#f3f5f6" fill-rule="evenodd" fill-opacity="1" stroke="#000000" stroke-opacity="1" stroke-width="4"/>
<polyline clip-path="url(#clip002)" style="stroke:#000000; stroke-linecap:butt; stroke-linejoin:round; stroke-width:8; stroke-opacity:1; fill:none" points="
  1793.96,853.196 1723.39,730.957 
  "/>
<polyline clip-path="url(#clip002)" style="stroke:#000000; stroke-linecap:butt; stroke-linejoin:round; stroke-width:8; stroke-opacity:1; fill:none" points="
  1725.4,764.438 1723.39,730.957 1751.38,749.438 
  "/>
<polyline clip-path="url(#clip002)" style="stroke:#000000; stroke-linecap:butt; stroke-linejoin:round; stroke-width:8; stroke-opacity:1; fill:none" points="
  1723.39,730.957 1793.96,853.196 
  "/>
<path clip-path="url(#clip002)" d="M558.909 747.599 L385.709 647.599 L385.709 447.599 L558.909 347.599 L732.109 447.599 L732.109 647.599 Z" fill="#f3f5f6" fill-rule="evenodd" fill-opacity="1" stroke="#000000" stroke-opacity="1" stroke-width="4"/>
<polyline clip-path="url(#clip002)" style="stroke:#000000; stroke-linecap:butt; stroke-linejoin:round; stroke-width:8; stroke-opacity:1; fill:none" points="
  558.909,547.599 700.058,547.599 
  "/>
<polyline clip-path="url(#clip002)" style="stroke:#000000; stroke-linecap:butt; stroke-linejoin:round; stroke-width:8; stroke-opacity:1; fill:none" points="
  670.058,532.599 700.058,547.599 670.058,562.599 
  "/>
<polyline clip-path="url(#clip002)" style="stroke:#000000; stroke-linecap:butt; stroke-linejoin:round; stroke-width:8; stroke-opacity:1; fill:none" points="
  700.058,547.599 558.909,547.599 
  "/>
<path clip-path="url(#clip002)" d="M911.782 747.599 L738.582 647.599 L738.582 447.599 L911.782 347.599 L1084.98 447.599 L1084.98 647.599 Z" fill="#98c8df" fill-rule="evenodd" fill-opacity="1" stroke="#000000" stroke-opacity="1" stroke-width="4"/>
<polyline clip-path="url(#clip002)" style="stroke:#000000; stroke-linecap:butt; stroke-linejoin:round; stroke-width:8; stroke-opacity:1; fill:none" points="
  911.782,547.599 1052.93,547.599 
  "/>
<polyline clip-path="url(#clip002)" style="stroke:#000000; stroke-linecap:butt; stroke-linejoin:round; stroke-width:8; stroke-opacity:1; fill:none" points="
  1022.93,532.599 1052.93,547.599 1022.93,562.599 
  "/>
<polyline clip-path="url(#clip002)" style="stroke:#000000; stroke-linecap:butt; stroke-linejoin:round; stroke-width:8; stroke-opacity:1; fill:none" points="
  1052.93,547.599 911.782,547.599 
  "/>
<path clip-path="url(#clip002)" d="M1264.65 747.599 L1091.45 647.599 L1091.45 447.599 L1264.65 347.599 L1437.85 447.599 L1437.85 647.599 Z" fill="#2066ac" fill-rule="evenodd" fill-opacity="1" stroke="#000000" stroke-opacity="1" stroke-width="4"/>
<polyline clip-path="url(#clip002)" style="stroke:#000000; stroke-linecap:butt; stroke-linejoin:round; stroke-width:8; stroke-opacity:1; fill:none" points="
  1264.65,547.599 1405.8,547.599 
  "/>
<polyline clip-path="url(#clip002)" style="stroke:#000000; stroke-linecap:butt; stroke-linejoin:round; stroke-width:8; stroke-opacity:1; fill:none" points="
  1375.8,532.599 1405.8,547.599 1375.8,562.599 
  "/>
<polyline clip-path="url(#clip002)" style="stroke:#000000; stroke-linecap:butt; stroke-linejoin:round; stroke-width:8; stroke-opacity:1; fill:none" points="
  1405.8,547.599 1264.65,547.599 
  "/>
<path clip-path="url(#clip002)" d="M1617.53 747.599 L1444.33 647.599 L1444.33 447.599 L1617.53 347.599 L1790.73 447.599 L1790.73 647.599 Z" fill="#98c8df" fill-rule="evenodd" fill-opacity="1" stroke="#000000" stroke-opacity="1" stroke-width="4"/>
<polyline clip-path="url(#clip002)" style="stroke:#000000; stroke-linecap:butt; stroke-linejoin:round; stroke-width:8; stroke-opacity:1; fill:none" points="
  1617.53,547.599 1476.38,547.599 
  "/>
<polyline clip-path="url(#clip002)" style="stroke:#000000; stroke-linecap:butt; stroke-linejoin:round; stroke-width:8; stroke-opacity:1; fill:none" points="
  1506.38,562.599 1476.38,547.599 1506.38,532.599 
  "/>
<polyline clip-path="url(#clip002)" style="stroke:#000000; stroke-linecap:butt; stroke-linejoin:round; stroke-width:8; stroke-opacity:1; fill:none" points="
  1476.38,547.599 1617.53,547.599 
  "/>
</svg>
